<?xml version="1.0" encoding="utf-8"?>
<!-- Generator: Adobe Illustrator 25.4.1, SVG Export Plug-In . SVG Version: 6.00 Build 0)  -->
<svg version="1.1" id="레이어_1" xmlns="http://www.w3.org/2000/svg" xmlns:xlink="http://www.w3.org/1999/xlink" x="0px"
	 y="0px" viewBox="0 0 477.8 55.1" style="enable-background:new 0 0 477.8 55.1;" xml:space="preserve">
<g>
	<path d="M15,3.4l14,37.1l14-37.1h10.9v48.4h-8.4v-16l0.8-21.4L32,51.8h-6L11.6,14.5l0.8,21.3v16H4.1V3.4H15z"/>
	<path d="M92,40.5H73.3l-3.9,11.3h-8.8L78.9,3.3h7.6l18.3,48.4H96L92,40.5z M75.6,33.7h14.1l-7-20.1L75.6,33.7z"/>
	<path d="M119.1,51.8h-8.4V3.4h8.4V51.8z"/>
	<path d="M154.8,39.3c0-2.1-0.7-3.8-2.2-4.9c-1.5-1.1-4.2-2.3-8.1-3.5c-3.9-1.2-7-2.5-9.3-3.9c-4.4-2.8-6.6-6.4-6.6-10.8
		c0-3.9,1.6-7.1,4.8-9.6c3.2-2.5,7.3-3.8,12.4-3.8c3.4,0,6.4,0.6,9,1.9c2.6,1.2,4.7,3,6.2,5.3c1.5,2.3,2.2,4.9,2.2,7.6h-8.4
		c0-2.5-0.8-4.5-2.4-5.9c-1.6-1.4-3.9-2.1-6.8-2.1c-2.8,0-4.9,0.6-6.4,1.8c-1.5,1.2-2.3,2.8-2.3,4.9c0,1.8,0.8,3.2,2.5,4.5
		c1.6,1.2,4.3,2.3,8.1,3.5c3.8,1.1,6.8,2.4,9.1,3.8c2.3,1.4,4,3.1,5,4.9c1.1,1.8,1.6,4,1.6,6.5c0,4-1.5,7.2-4.6,9.6
		c-3.1,2.4-7.3,3.6-12.6,3.6c-3.5,0-6.7-0.6-9.7-2c-2.9-1.3-5.2-3.1-6.8-5.4c-1.6-2.3-2.5-5-2.5-8h8.4c0,2.8,0.9,4.9,2.7,6.4
		c1.8,1.5,4.4,2.2,7.8,2.2c2.9,0,5.1-0.6,6.6-1.8C154.1,42.8,154.8,41.2,154.8,39.3z"/>
	<path d="M210.6,28.8c0,4.7-0.8,8.9-2.5,12.5c-1.6,3.6-4,6.3-7,8.2c-3,1.9-6.6,2.9-10.5,2.9c-3.9,0-7.4-1-10.5-2.9
		c-3.1-1.9-5.5-4.6-7.1-8.2c-1.7-3.5-2.5-7.6-2.5-12.3v-2.8c0-4.7,0.8-8.9,2.5-12.5c1.7-3.6,4-6.4,7.1-8.3c3-1.9,6.6-2.9,10.5-2.9
		c4,0,7.5,1,10.5,2.9c3,1.9,5.4,4.6,7,8.2c1.7,3.6,2.5,7.7,2.5,12.4L210.6,28.8L210.6,28.8L210.6,28.8z M202.2,26.3
		c0-5.4-1-9.5-3-12.3c-2-2.9-4.9-4.3-8.6-4.3c-3.6,0-6.5,1.4-8.5,4.3c-2,2.9-3.1,6.9-3.1,12.1v2.8c0,5.3,1,9.4,3.1,12.3
		c2.1,2.9,5,4.3,8.6,4.3c3.7,0,6.6-1.4,8.6-4.2c2-2.9,3-7,3-12.5C202.2,28.8,202.2,26.3,202.2,26.3z"/>
	<path d="M256.7,51.8h-8.4l-21.6-34.4v34.4h-8.4V3.4h8.4l21.6,34.5V3.4h8.3V51.8z"/>
	<path d="M306.7,28.8c0,4.7-0.8,8.9-2.5,12.5c-1.6,3.6-4,6.3-7,8.2c-3,1.9-6.6,2.9-10.5,2.9c-3.9,0-7.4-1-10.5-2.9
		c-3.1-1.9-5.5-4.6-7.1-8.2c-1.7-3.5-2.5-7.6-2.5-12.3v-2.8c0-4.7,0.8-8.9,2.5-12.5c1.7-3.6,4-6.4,7.1-8.3c3-1.9,6.6-2.9,10.5-2.9
		c3.9,0,7.5,1,10.5,2.9c3,1.9,5.4,4.6,7,8.2c1.7,3.6,2.5,7.7,2.5,12.4L306.7,28.8L306.7,28.8L306.7,28.8z M298.3,26.3
		c0-5.4-1-9.5-3-12.3c-2-2.9-4.9-4.3-8.6-4.3c-3.6,0-6.5,1.4-8.5,4.3S275,20.8,275,26v2.8c0,5.3,1,9.4,3.1,12.3
		c2.1,2.9,5,4.3,8.6,4.3c3.7,0,6.6-1.4,8.6-4.2c2-2.9,3-7,3-12.5C298.3,28.8,298.3,26.3,298.3,26.3z"/>
	<path d="M314.4,51.8V3.4H331c5.5,0,9.7,1.1,12.5,3.3c2.9,2.2,4.3,5.5,4.3,9.8c0,2.2-0.6,4.2-1.8,6c-1.2,1.8-3,3.1-5.3,4.1
		c2.6,0.7,4.6,2,6.1,4s2.1,4.3,2.1,7c0,4.5-1.5,8-4.4,10.5c-2.9,2.4-7.1,3.7-12.5,3.7L314.4,51.8L314.4,51.8L314.4,51.8L314.4,51.8z
		 M322.9,23.7h8.2c2.6,0,4.7-0.6,6.1-1.8c1.5-1.2,2.2-2.9,2.2-5c0-2.4-0.7-4.1-2-5.2c-1.4-1.1-3.5-1.6-6.4-1.6h-8.2L322.9,23.7
		L322.9,23.7z M322.9,29.9v15.1h9.3c2.6,0,4.7-0.6,6.2-2c1.5-1.3,2.2-3.1,2.2-5.5c0-5-2.6-7.6-7.7-7.7
		C332.9,29.9,322.9,29.9,322.9,29.9z"/>
	<path d="M378.7,3.4h8.4v33.9c0,4.6-1.5,8.3-4.3,11.1c-2.9,2.7-6.7,4.1-11.5,4.1c-5.1,0-9-1.3-11.7-3.8c-2.7-2.5-4.1-6.1-4.1-10.6
		h8.4c0,2.6,0.6,4.5,1.9,5.8c1.3,1.3,3.1,2,5.5,2c2.2,0,4.1-0.7,5.4-2.2c1.4-1.5,2-3.6,2-6.2L378.7,3.4L378.7,3.4z"/>
	<path d="M424.4,30.1h-19.9v14.9h23.3v6.7H396V3.4h31.4v6.8h-23v13.4h19.9V30.1L424.4,30.1z"/>
	<path d="M473.7,10.2h-15.1v41.7h-8.3V10.2h-15V3.4h38.4L473.7,10.2L473.7,10.2z"/>
</g>
</svg>
